<mxfile host="embed.diagrams.net" modified="2025-07-04T18:25:12.345Z" agent="GitHub Copilot" etag="AbCdEfGhIjKlMnOp" version="24.6.4" type="embed">
  <diagram name="Query Processing Pipeline" id="cDeFgHi-11223">
    <mxGraphModel dx="1434" dy="746" grid="1" gridSize="10" guides="1" tooltips="1" connect="1" arrows="1" fold="1" page="1" pageScale="1" pageWidth="1100" pageHeight="850" math="0" shadow="0">
      <root>
        <mxCell id="0" />
        <mxCell id="1" parent="0" />
        <mxCell id="Stage_Parser" value="Parser" style="rounded=1;whiteSpace=wrap;html=1;fillColor=#dae8fc;strokeColor=#6c8ebf;" parent="1" vertex="1">
          <mxGeometry x="160" y="120" width="120" height="60" as="geometry" />
        </mxCell>
        <mxCell id="Stage_Binder" value="Binder" style="rounded=1;whiteSpace=wrap;html=1;fillColor=#dae8fc;strokeColor=#6c8ebf;" parent="1" vertex="1">
          <mxGeometry x="360" y="120" width="120" height="60" as="geometry" />
        </mxCell>
        <mxCell id="Stage_Planner" value="Planner / Optimizer" style="rounded=1;whiteSpace=wrap;html=1;fillColor=#dae8fc;strokeColor=#6c8ebf;" parent="1" vertex="1">
          <mxGeometry x="560" y="120" width="140" height="60" as="geometry" />
        </mxCell>
        <mxCell id="Stage_Executor" value="Executor" style="rounded=1;whiteSpace=wrap;html=1;fillColor=#dae8fc;strokeColor=#6c8ebf;" parent="1" vertex="1">
          <mxGeometry x="780" y="120" width="120" height="60" as="geometry" />
        </mxCell>
        <mxCell id="Input_SQL" value="Raw SQL String" style="edgeLabel;html=1;align=center;verticalAlign=middle;resizable=0;points=[];" parent="1" vertex="1" connectable="0">
          <mxGeometry x="60" y="120" as="geometry">
            <mxPoint x="-40" y="15" as="offset" />
          </mxGeometry>
        </mxCell>
        <mxCell id="Flow_SqlToParser" style="edgeStyle=orthogonalEdgeStyle;rounded=0;orthogonalLoop=1;jettySize=auto;html=1;endArrow=classic;endFill=1;" edge="1" parent="1" target="Stage_Parser">
          <mxGeometry relative="1" as="geometry">
            <mxPoint x="80" y="150" as="sourcePoint" />
          </mxGeometry>
        </mxCell>
        <mxCell id="Flow_ParserToBinder" value="Raw AST" style="edgeStyle=orthogonalEdgeStyle;rounded=0;orthogonalLoop=1;jettySize=auto;html=1;endArrow=classic;endFill=1;" edge="1" parent="1" source="Stage_Parser" target="Stage_Binder">
          <mxGeometry relative="1" as="geometry" />
        </mxCell>
        <mxCell id="Flow_BinderToPlanner" value="Logical Plan" style="edgeStyle=orthogonalEdgeStyle;rounded=0;orthogonalLoop=1;jettySize=auto;html=1;endArrow=classic;endFill=1;" edge="1" parent="1" source="Stage_Binder" target="Stage_Planner">
          <mxGeometry relative="1" as="geometry" />
        </mxCell>
        <mxCell id="Flow_PlannerToExecutor" value="Physical Plan" style="edgeStyle=orthogonalEdgeStyle;rounded=0;orthogonalLoop=1;jettySize=auto;html=1;endArrow=classic;endFill=1;" edge="1" parent="1" source="Stage_Planner" target="Stage_Executor">
          <mxGeometry relative="1" as="geometry" />
        </mxCell>
        <mxCell id="Flow_ExecutorToOutput" value="Tuples" style="edgeStyle=orthogonalEdgeStyle;rounded=0;orthogonalLoop=1;jettySize=auto;html=1;endArrow=classic;endFill=1;" edge="1" parent="1" source="Stage_Executor">
          <mxGeometry relative="1" as="geometry">
            <mxPoint x="980" y="150" as="targetPoint" />
          </mxGeometry>
        </mxCell>
        <mxCell id="Note_Binder" value="Creates &lt;b&gt;Expression Tree&lt;/b&gt; as part of the Logical Plan." style="shape=note;whiteSpace=wrap;html=1;backgroundOutline=1;darkOpacity=0.05;fillColor=#fff2cc;strokeColor=#d6b656;" parent="1" vertex="1">
          <mxGeometry x="340" y="220" width="160" height="80" as="geometry" />
        </mxCell>
        <mxCell id="Note_Planner" value="Analyzes and transforms &lt;b&gt;Expression Tree&lt;/b&gt; for optimization.&lt;br&gt;(e.g., using `CloneWithChildren`)" style="shape=note;whiteSpace=wrap;html=1;backgroundOutline=1;darkOpacity=0.05;fillColor=#fff2cc;strokeColor=#d6b656;" parent="1" vertex="1">
          <mxGeometry x="550" y="220" width="160" height="90" as="geometry" />
        </mxCell>
        <mxCell id="Note_Executor" value="Calls `&lt;b&gt;Evaluate()&lt;/b&gt;` on the final &lt;b&gt;Expression Tree&lt;/b&gt; to filter tuples." style="shape=note;whiteSpace=wrap;html=1;backgroundOutline=1;darkOpacity=0.05;fillColor=#fff2cc;strokeColor=#d6b656;" parent="1" vertex="1">
          <mxGeometry x="760" y="220" width="160" height="80" as="geometry" />
        </mxCell>
        <mxCell id="Link_BinderNote" style="edgeStyle=orthogonalEdgeStyle;rounded=0;orthogonalLoop=1;jettySize=auto;html=1;endArrow=none;endFill=0;dashed=1;" edge="1" parent="1" source="Stage_Binder" target="Note_Binder">
          <mxGeometry relative="1" as="geometry" />
        </mxCell>
        <mxCell id="Link_PlannerNote" style="edgeStyle=orthogonalEdgeStyle;rounded=0;orthogonalLoop=1;jettySize=auto;html=1;endArrow=none;endFill=0;dashed=1;" edge="1" parent="1" source="Stage_Planner" target="Note_Planner">
          <mxGeometry relative="1" as="geometry" />
        </mxCell>
        <mxCell id="Link_ExecutorNote" style="edgeStyle=orthogonalEdgeStyle;rounded=0;orthogonalLoop=1;jettySize=auto;html=1;endArrow=none;endFill=0;dashed=1;" edge="1" parent="1" source="Stage_Executor" target="Note_Executor">
          <mxGeometry relative="1" as="geometry" />
        </mxCell>
      </root>
    </mxGraphModel>
  </diagram>
</mxfile>